<svg width="18" height="18" viewBox="0 0 18 18" fill="none" xmlns="http://www.w3.org/2000/svg">
<path fill-rule="evenodd" clip-rule="evenodd" d="M2.79347 1.25711C2.40295 0.866587 1.76978 0.866587 1.37926 1.25711L1.25711 1.37926C0.866587 1.76978 0.866587 2.40295 1.25711 2.79347L7.46363 8.99999L1.25711 15.2065C0.866588 15.597 0.866587 16.2302 1.25711 16.6207L1.37926 16.7429C1.76978 17.1334 2.40295 17.1334 2.79347 16.7429L8.99999 10.5364L15.2065 16.7429C15.597 17.1334 16.2302 17.1334 16.6207 16.7429L16.7429 16.6207C17.1334 16.2302 17.1334 15.597 16.7429 15.2065L10.5364 8.99999L16.7429 2.79347C17.1334 2.40295 17.1334 1.76978 16.7429 1.37926L16.6207 1.25711C16.2302 0.866587 15.597 0.866587 15.2065 1.25711L8.99999 7.46363L2.79347 1.25711Z" fill="white"/>
</svg>
