<svg width="105" height="56" viewBox="0 0 105 56" fill="none" xmlns="http://www.w3.org/2000/svg">
<path fill-rule="evenodd" clip-rule="evenodd" d="M39.1111 0.777771C38.5588 0.777771 38.1111 1.22549 38.1111 1.77777V6.50093C38.1111 7.05322 38.5588 7.50093 39.1111 7.50093H78.1043C88.9546 7.50093 97.4762 15.8545 97.4762 26.6682C97.4762 26.9742 97.7242 27.2222 98.0302 27.2222H103.668C103.974 27.2222 104.222 26.9742 104.222 26.6682C104.222 12.2154 92.6058 0.777771 78.1043 0.777771H39.1111Z" fill="#6B7B84" stroke="#80949F" stroke-width="0.5"/>
<path fill-rule="evenodd" clip-rule="evenodd" d="M7.61429 27.6918C7.61429 27.4325 7.40404 27.2222 7.14469 27.2222H1.24737C0.988017 27.2222 0.777771 27.4325 0.777771 27.6918C0.777771 42.3162 11.7312 54.3906 25.8949 55.1808L71.3324 55.2213C71.8851 55.2218 72.3333 54.774 72.3333 54.2213V49.1717C72.3333 48.6194 71.8856 48.1717 71.3333 48.1717H27.4568C16.4895 48.1413 7.61429 39.0177 7.61429 27.6918Z" fill="#6B7B84" stroke="#80949F" stroke-width="0.5"/>
<path fill-rule="evenodd" clip-rule="evenodd" d="M30.1515 42.7778C33.086 42.7778 35.5302 42.2077 37.9445 41.0346L38.1111 40.8787V32.4846L37.2077 33.6412C35.4694 35.5407 33.1348 36.5863 30.4936 36.5863C25.574 36.5863 20.633 33.4065 20.633 27.3293C20.633 22.7367 24.0407 17.8559 30.3206 17.8559C31.5737 17.8559 34.621 18.1521 37.2033 20.8945L38.1111 22.0127V13.6567L37.9518 13.4987C35.4919 12.266 32.9831 11.6667 30.1217 11.6667C25.2285 11.6667 21.4093 12.9549 18.3683 15.6026C16.4394 17.262 13.2222 20.9807 13.2222 27.2419C13.2222 31.8713 14.8706 35.4868 18.393 38.6227C21.6698 41.4961 25.3031 42.7778 30.1515 42.7778Z" fill="#6B7B84"/>
<path d="M30.1515 42.7778C33.086 42.7778 35.5302 42.2077 37.9445 41.0346L38.1111 40.8787V32.4846L37.2077 33.6412C35.4694 35.5407 33.1348 36.5863 30.4936 36.5863C25.574 36.5863 20.633 33.4065 20.633 27.3293C20.633 22.7367 24.0407 17.8559 30.3206 17.8559C31.5737 17.8559 34.621 18.1521 37.2033 20.8945L38.1111 22.0127V13.6567L37.9518 13.4987C35.4919 12.266 32.9831 11.6667 30.1217 11.6667C25.2285 11.6667 21.4093 12.9549 18.3683 15.6026C16.4394 17.262 13.2222 20.9807 13.2222 27.2419C13.2222 31.8713 14.8706 35.4868 18.393 38.6227C21.6698 41.4961 25.3031 42.7778 30.1515 42.7778" stroke="#80949F" stroke-width="0.5"/>
<path fill-rule="evenodd" clip-rule="evenodd" d="M51.3333 18.6667H52.7951C54.1359 18.6667 55.6642 18.7398 56.8209 19.5282C57.3856 19.9317 58.3333 20.8657 58.3333 22.5621C58.3333 23.8157 57.7793 24.9397 56.8643 25.6412C55.691 26.4928 54.2965 26.4439 53.176 26.4439H51.3333V18.6667ZM54.618 32.0907C58.0802 32.0907 60.7903 31.0921 62.6723 29.2107C64.9873 26.9004 65.3333 23.7223 65.3333 22.0468C65.3333 20.254 64.9084 16.7572 62.0582 14.2254C59.722 12.1782 57.2293 11.6667 53.7131 11.6667H44.3333V42.7778H51.4675V32.0907H54.618Z" fill="#6B7B84"/>
<path d="M51.3333 18.6667V18.4167H51.0833V18.6667H51.3333ZM56.8209 19.5282L56.9662 19.3248L56.9617 19.3217L56.8209 19.5282ZM56.8643 25.6412L57.0112 25.8435L57.0164 25.8396L56.8643 25.6412ZM51.3333 26.4439H51.0833V26.6939H51.3333V26.4439ZM62.6723 29.2107L62.4957 29.0338L62.4955 29.0339L62.6723 29.2107ZM62.0582 14.2254L62.2243 14.0385L62.223 14.0373L62.0582 14.2254ZM44.3333 11.6667V11.4167H44.0833V11.6667H44.3333ZM44.3333 42.7778H44.0833V43.0278H44.3333V42.7778ZM51.4675 42.7778V43.0278H51.7175V42.7778H51.4675ZM51.4675 32.0907V31.8407H51.2175V32.0907H51.4675ZM51.3333 18.9167H52.7951V18.4167H51.3333V18.9167ZM52.7951 18.9167C54.1416 18.9167 55.5948 18.995 56.68 19.7348L56.9617 19.3217C55.7336 18.4846 54.1302 18.4167 52.7951 18.4167V18.9167ZM56.6755 19.7317C57.2008 20.1069 58.0833 20.974 58.0833 22.5621H58.5833C58.5833 20.7574 57.5705 19.7565 56.9662 19.3248L56.6755 19.7317ZM58.0833 22.5621C58.0833 23.7416 57.5626 24.7908 56.7122 25.4427L57.0164 25.8396C57.996 25.0887 58.5833 23.8898 58.5833 22.5621H58.0833ZM56.7174 25.4388C55.6218 26.2341 54.3169 26.1939 53.176 26.1939V26.6939C54.2761 26.6939 55.7602 26.7514 57.0111 25.8435L56.7174 25.4388ZM53.176 26.1939H51.3333V26.6939H53.176V26.1939ZM51.5833 26.4439V18.6667H51.0833V26.4439H51.5833ZM54.618 32.3407C58.1287 32.3407 60.9089 31.327 62.849 29.3875L62.4955 29.0339C60.6716 30.8572 58.0317 31.8407 54.618 31.8407V32.3407ZM62.8489 29.3877C65.2353 27.0062 65.5833 23.7437 65.5833 22.0468H65.0833C65.0833 23.7009 64.7393 26.7947 62.4957 29.0338L62.8489 29.3877ZM65.5833 22.0468C65.5833 20.226 65.1533 16.6405 62.2243 14.0385L61.8922 14.4123C64.6634 16.874 65.0833 20.2821 65.0833 22.0468H65.5833ZM62.223 14.0373C59.8213 11.9328 57.2569 11.4167 53.7131 11.4167V11.9167C57.2018 11.9167 59.6228 12.4236 61.8935 14.4134L62.223 14.0373ZM53.7131 11.4167H44.3333V11.9167H53.7131V11.4167ZM44.0833 11.6667V42.7778H44.5833V11.6667H44.0833ZM44.3333 43.0278H51.4675V42.5278H44.3333V43.0278ZM51.7175 42.7778V32.0907H51.2175V42.7778H51.7175ZM51.4675 32.3407H54.618V31.8407H51.4675V32.3407Z" fill="#80949F"/>
<path fill-rule="evenodd" clip-rule="evenodd" d="M86.7351 26.3595C85.1841 24.9852 83.019 24.1886 80.5616 23.3623C78.8108 22.753 77.846 22.4174 77.2029 21.831C76.6952 21.4001 76.4689 20.9323 76.4689 20.314C76.4689 18.9597 77.3892 17.5123 79.9727 17.5123C81.7285 17.5123 83.1985 18.263 84.3423 19.7427L84.7964 20.3303L88.5638 15.5347L88.2203 15.1907C85.9162 12.8849 82.8799 11.6667 79.4397 11.6667C72.4987 11.6667 69.3917 16.1822 69.3917 20.6575C69.3917 23.059 70.2481 24.9959 71.9319 26.4118C73.4394 27.7038 75.2778 28.4278 77.0413 29.0188L77.2406 29.0848C78.8066 29.6024 80.4261 30.1381 81.3934 31.0038C82.0663 31.6221 82.3663 32.2941 82.3663 33.1824C82.3663 35.2182 80.763 36.5863 78.3769 36.5863C76.4908 36.5863 74.0071 35.6618 72.6931 33.0677L72.3494 32.388L67.6667 36.7228L67.9428 37.1134C69.4368 39.2288 72.8082 42.7778 78.5991 42.7778C84.9845 42.7778 89.4444 38.6725 89.4444 32.7949C89.4444 29.4331 87.9695 27.4379 86.7351 26.3595Z" fill="#6B7B84"/>
<path d="M86.7351 26.3595C85.1841 24.9852 83.019 24.1886 80.5616 23.3623C78.8108 22.753 77.846 22.4174 77.2029 21.831C76.6952 21.4001 76.4689 20.9323 76.4689 20.314C76.4689 18.9597 77.3892 17.5123 79.9727 17.5123C81.7285 17.5123 83.1985 18.263 84.3423 19.7427L84.7964 20.3303L88.5638 15.5347L88.2203 15.1907C85.9162 12.8849 82.8799 11.6667 79.4397 11.6667C72.4987 11.6667 69.3917 16.1822 69.3917 20.6575C69.3917 23.059 70.2481 24.9959 71.9319 26.4118C73.4394 27.7038 75.2778 28.4278 77.0413 29.0188L77.2406 29.0848C78.8066 29.6024 80.4261 30.1381 81.3934 31.0038C82.0663 31.6221 82.3663 32.2941 82.3663 33.1824C82.3663 35.2182 80.763 36.5863 78.3769 36.5863C76.4908 36.5863 74.0071 35.6618 72.6931 33.0677L72.3494 32.388L67.6667 36.7228L67.9428 37.1134C69.4368 39.2288 72.8082 42.7778 78.5991 42.7778C84.9845 42.7778 89.4444 38.6725 89.4444 32.7949C89.4444 29.4332 87.9695 27.4379 86.7351 26.3595" stroke="#80949F" stroke-width="0.5"/>
</svg>
